<svg width="20" height="20" viewBox="0 0 20 20" fill="none" xmlns="http://www.w3.org/2000/svg">
<g id="Share">
<path id="Subtract" fill-rule="evenodd" clip-rule="evenodd" d="M12.8911 4.8085C12.8911 3.96573 13.5406 3.3335 14.2801 3.3335C15.0196 3.3335 15.6691 3.96573 15.6691 4.8085C15.6691 5.65127 15.0196 6.28351 14.2801 6.28351C13.8025 6.28351 13.3624 6.0198 13.1107 5.60598C13.0999 5.58338 13.0878 5.5611 13.0746 5.53923C13.0702 5.53199 13.0657 5.52484 13.0611 5.5178C12.9533 5.30985 12.8911 5.06925 12.8911 4.8085ZM14.2801 7.78351C13.4779 7.78351 12.7629 7.45126 12.2449 6.92022L8.5043 9.19097C8.57531 9.44928 8.61316 9.72092 8.61316 10.0002C8.61316 10.2793 8.57535 10.5508 8.50441 10.809L10.6421 12.1048L9.87408 13.3933L7.75965 12.1116C7.24165 12.6428 6.52657 12.9752 5.72418 12.9752C4.10105 12.9752 2.83521 11.6151 2.83521 10.0002C2.83521 8.38528 4.10105 7.02517 5.72418 7.02517C6.52641 7.02517 7.24136 7.35742 7.75933 7.88846L11.5 5.6177C11.429 5.3594 11.3911 5.08776 11.3911 4.8085C11.3911 3.1936 12.657 1.8335 14.2801 1.8335C15.9032 1.8335 17.1691 3.1936 17.1691 4.8085C17.1691 6.4234 15.9032 7.78351 14.2801 7.78351ZM11.4484 14.6017C11.4108 14.793 11.3911 14.9905 11.3911 15.1919C11.3911 16.8068 12.657 18.1669 14.2801 18.1669C15.9032 18.1669 17.1691 16.8068 17.1691 15.1919C17.1691 13.577 15.9032 12.2169 14.2801 12.2169C13.597 12.2169 12.9771 12.4578 12.4883 12.8572L11.4484 14.6017ZM6.92972 9.26945C6.91644 9.24758 6.90441 9.2253 6.89362 9.2027C6.64183 8.78888 6.20179 8.52517 5.72418 8.52517C4.98467 8.52517 4.33521 9.15741 4.33521 10.0002C4.33521 10.8429 4.98467 11.4752 5.72418 11.4752C6.20179 11.4752 6.64183 11.2115 6.89362 10.7977C6.90435 10.7752 6.91629 10.7531 6.92946 10.7313C6.93394 10.7239 6.93853 10.7167 6.94322 10.7095C7.05099 10.5015 7.11316 10.2609 7.11316 10.0002C7.11316 9.73943 7.05099 9.49883 6.94322 9.29088C6.93861 9.28384 6.93411 9.27669 6.92972 9.26945ZM13.0819 14.4607C13.0697 14.481 13.0566 14.5004 13.0428 14.5191C12.9463 14.7185 12.8911 14.9462 12.8911 15.1919C12.8911 16.0346 13.5406 16.6669 14.2801 16.6669C15.0196 16.6669 15.6691 16.0346 15.6691 15.1919C15.6691 14.3491 15.0196 13.7169 14.2801 13.7169C13.8174 13.7169 13.39 13.9643 13.1348 14.3561C13.1201 14.3917 13.1026 14.4267 13.0819 14.4607Z" fill="url(#paint0_linear_923_8799)"/>
</g>
<defs>
<linearGradient id="paint0_linear_923_8799" x1="0.56919" y1="11.5267" x2="21.1899" y2="11.0886" gradientUnits="userSpaceOnUse">
<stop stop-color="#3300C6"/>
<stop offset="1" stop-color="#8466DB"/>
</linearGradient>
</defs>
</svg>
