<svg width="248" height="52" viewBox="0 0 248 52" fill="none" xmlns="http://www.w3.org/2000/svg">
<path d="M83.6914 0.403505C83.6914 2.31267 85.2629 3.86596 87.1945 3.86596H108.22V0.179688H83.6914V0.403505Z" fill="white"/>
<path d="M136.146 0.177734H131.097L123.232 9.21996L115.368 0.177734H110.316L120.707 12.1229L110.221 24.1777H115.27L123.232 15.0258L131.192 24.1777H136.244L125.757 12.1229L136.146 0.177734Z" fill="white"/>
<path d="M88.2148 10.5578C88.2148 12.467 89.7864 14.0203 91.7179 14.0203H108.226V10.334H88.2148V10.5578Z" fill="white"/>
<path d="M92.7305 20.7141C92.7305 22.6232 94.302 24.1765 96.2336 24.1765H108.221V20.4902H92.7305V20.7141Z" fill="white"/>
<path d="M7.70588 18.5666H23.1471L26.3943 24.1754H30.8552L16.9629 0.177734H13.8901L0 24.1754H4.46095L7.70588 18.5666ZM9.84124 14.8781L15.4253 5.22929L21.0117 14.8781H9.84124Z" fill="white"/>
<path d="M77.7305 10.2943H57.7446V0.177734H54.1328V24.1777H57.7446V13.9828H77.7305V24.1777H81.3423V0.179968H77.7305V10.2943Z" fill="white"/>
<path d="M25.7598 3.86848H36.9665V24.1777H40.5782V3.86848H51.785V0.177734H25.7598V3.86848Z" fill="white"/>
<path d="M149.408 13.4019H160.422C160.28 15.085 159.802 16.5824 159 17.8559C158.131 19.2413 156.953 20.3223 155.499 21.0744C154.041 21.8286 152.388 22.2091 150.586 22.2091C148.715 22.2091 147.005 21.7995 145.502 20.9938C144.005 20.1925 142.805 19.0242 141.933 17.5224C141.059 16.0161 140.615 14.23 140.615 12.2112C140.615 10.1924 141.059 8.40406 141.933 6.9C142.805 5.39819 144.007 4.22315 145.504 3.41293C147.008 2.596 148.717 2.18417 150.586 2.18417C152.723 2.18417 154.598 2.68105 156.154 3.6636C157.703 4.64169 158.826 5.96668 159.494 7.60503L159.605 7.87585H162.383L162.141 7.2805C161.217 5.01322 159.729 3.21149 157.721 1.92902C155.717 0.648782 153.316 0.00195312 150.586 0.00195312C148.24 0.00195312 146.091 0.523446 144.2 1.55301C142.302 2.58481 140.796 4.04633 139.725 5.89507C138.656 7.74156 138.115 9.86559 138.115 12.2134C138.115 14.5389 138.656 16.654 139.725 18.4982C140.796 20.347 142.302 21.8085 144.2 22.8403C146.091 23.8698 148.24 24.3913 150.586 24.3913C152.884 24.3913 154.985 23.8855 156.829 22.8918C158.676 21.8935 160.157 20.4902 161.228 18.7198C162.297 16.9516 162.877 14.9328 162.949 12.7081V11.2891H149.406V13.4019H149.408Z" fill="white"/>
<path d="M179.555 11.9451C180.696 10.7164 181.276 9.14069 181.276 7.26062C181.276 5.14555 180.531 3.41991 179.064 2.13296C177.612 0.85944 175.429 0.214844 172.58 0.214844H165.332V24.1767H167.796V14.34H172.551L178.903 24.1767H181.851L175.286 14.0982C177.107 13.7603 178.543 13.0373 179.555 11.9451ZM178.742 7.26062C178.742 8.74901 178.244 9.95986 177.261 10.8574C176.267 11.7638 174.718 12.2226 172.653 12.2226H167.798V2.39482H172.583C176.727 2.39706 178.742 3.98841 178.742 7.26062Z" fill="white"/>
<path d="M202.047 1.55105C200.157 0.521493 198.008 0 195.662 0C193.316 0 191.167 0.521493 189.276 1.55105C187.378 2.58285 185.872 4.04438 184.801 5.89311C183.733 7.73737 183.191 9.86364 183.191 12.2115C183.191 14.5369 183.733 16.6565 184.801 18.5119C185.872 20.3719 187.378 21.8401 189.276 22.8719C191.167 23.9015 193.316 24.423 195.662 24.423C198.008 24.423 200.157 23.9015 202.047 22.8719C203.945 21.8401 205.451 20.3719 206.522 18.5119C207.591 16.6565 208.132 14.5347 208.132 12.2115C208.132 9.86588 207.591 7.73961 206.522 5.89311C205.451 4.04438 203.945 2.58285 202.047 1.55105ZM205.598 12.2115C205.598 14.2303 205.161 16.0186 204.296 17.5249C203.435 19.0245 202.24 20.1973 200.743 21.012C199.239 21.8289 197.53 22.2407 195.662 22.2407C193.793 22.2407 192.084 21.8267 190.58 21.012C189.083 20.1995 187.881 19.0267 187.009 17.5227C186.135 16.0186 185.691 14.2303 185.691 12.2115C185.691 10.1703 186.135 8.37077 187.009 6.86672C187.881 5.3649 189.083 4.18987 190.58 3.37965C192.084 2.56271 193.793 2.15088 195.662 2.15088C197.53 2.15088 199.239 2.56495 200.743 3.37965C202.24 4.1921 203.435 5.3649 204.296 6.86672C205.159 8.37077 205.598 10.1703 205.598 12.2115Z" fill="white"/>
<path d="M226.398 15.0747C226.398 17.5747 225.814 19.4078 224.659 20.5224C223.502 21.6415 221.885 22.2078 219.849 22.2078C217.789 22.2078 216.147 21.6348 214.967 20.5045C213.792 19.3765 213.194 17.5501 213.194 15.0747V0.197553H210.73V15.0411C210.73 18.1343 211.577 20.4933 213.249 22.0511C214.913 23.6022 217.132 24.39 219.847 24.39C222.562 24.39 224.765 23.6089 226.396 22.0645C228.031 20.5179 228.86 18.1544 228.86 15.0389V0.195312H226.396V15.0747H226.398Z" fill="white"/>
<path d="M245.842 2.0681C244.425 0.828147 242.274 0.199219 239.448 0.199219H232.129V24.1611H234.593V14.0267H239.448C242.221 14.0267 244.359 13.4224 245.797 12.2316C247.26 11.0208 248 9.31083 248 7.14651C248.003 5.0292 247.276 3.32147 245.842 2.0681ZM245.539 7.14427C245.539 10.3068 243.546 11.8444 239.45 11.8444H234.595V2.37921H239.45C241.612 2.37921 243.188 2.79103 244.137 3.60572C245.066 4.40475 245.539 5.59546 245.539 7.14427Z" fill="white"/>
<path d="M37.8626 36.4004L33.9609 47.918H35.4577L36.3703 45.2233H41.3521L42.2737 47.918H43.7705L39.8689 36.4004H37.8626ZM36.8255 43.8871L38.8521 37.8977L40.8969 43.8871H36.8255Z" fill="white"/>
<path d="M46.807 36.877H45.3668V39.2763H43.5938V40.4513H45.3668V44.6501C45.3668 45.0933 45.3736 45.4894 45.3872 45.8386C45.4008 46.1878 45.4936 46.5324 45.6657 46.8749C45.8695 47.2643 46.1707 47.5508 46.5647 47.7343C46.9587 47.9179 47.4071 48.0186 47.912 48.0387C48.417 48.0566 48.9288 48.0163 49.4451 47.9156V46.6913C48.8473 46.7831 48.3355 46.7988 47.912 46.7384C47.4886 46.6802 47.1806 46.4787 46.9859 46.1385C46.884 45.9572 46.8274 45.7424 46.8206 45.4917C46.8115 45.241 46.8093 44.9388 46.8093 44.5875V40.4513H49.4473V39.2763H46.807V36.877Z" fill="white"/>
<path d="M58.1529 40.9954C58.0012 40.635 57.7951 40.3105 57.5302 40.0195C57.2652 39.7286 56.9346 39.4958 56.5338 39.319C56.1353 39.1421 55.6507 39.0549 55.0846 39.0549C54.3351 39.0549 53.6829 39.216 53.1304 39.5383C52.7522 39.7599 52.4329 40.0464 52.1703 40.3955V36.4004H50.875V47.918H52.331V43.3678C52.331 42.8665 52.3899 42.43 52.5054 42.0607C52.6209 41.6892 52.7839 41.3826 52.9945 41.1364C53.2051 40.8902 53.4565 40.7089 53.7508 40.588C54.0452 40.4671 54.3736 40.409 54.7336 40.409C55.1978 40.409 55.5828 40.4962 55.8862 40.6731C56.1919 40.8499 56.4342 41.0871 56.6153 41.3893C56.7965 41.6914 56.9233 42.0316 56.9958 42.4099C57.0682 42.7881 57.1045 43.1843 57.1045 43.5939V47.9203H58.5605V43.144C58.5605 42.8128 58.5288 42.4636 58.4677 42.0921C58.4065 41.7205 58.3046 41.3557 58.1529 40.9954Z" fill="white"/>
<path d="M66.2974 39.6389C65.6792 39.2383 64.9319 39.0391 64.0511 39.0391C63.2042 39.0391 62.466 39.2271 61.8387 39.6031C61.2092 39.9791 60.7201 40.5118 60.3691 41.2034C60.0181 41.895 59.8438 42.7119 59.8438 43.6542C59.8438 44.5562 60.0227 45.344 60.3782 46.0177C60.7337 46.6914 61.2319 47.2174 61.8704 47.5934C62.509 47.9694 63.2585 48.1574 64.1167 48.1574C64.9636 48.1574 65.729 47.947 66.4106 47.5285C67.0922 47.1099 67.604 46.519 67.9436 45.7558L66.5601 45.2836C66.3178 45.7737 65.9827 46.1497 65.5569 46.4116C65.1312 46.6735 64.6285 46.8033 64.0511 46.8033C63.1929 46.8033 62.5316 46.5235 62.0674 45.964C61.6666 45.4805 61.4402 44.8225 61.3858 43.9966H66.6325H67.3436H68.0886C68.1316 42.9715 67.998 42.0897 67.6878 41.3489C67.3798 40.6103 66.9156 40.0395 66.2974 39.6389ZM62.0697 41.1676C62.5339 40.6013 63.211 40.3193 64.1009 40.3193C64.9319 40.3193 65.5569 40.5812 65.9781 41.1071C66.311 41.5212 66.5148 42.1054 66.594 42.8551H61.4153C61.5036 42.1546 61.721 41.5928 62.0697 41.1676Z" fill="white"/>
<path d="M76.5748 40.9952C76.423 40.6348 76.217 40.3103 75.952 40.0193C75.6871 39.7284 75.3565 39.4956 74.9557 39.3188C74.5572 39.142 74.0726 39.0547 73.5065 39.0547C72.7569 39.0547 72.1048 39.2158 71.5522 39.5381C71.1741 39.7597 70.8548 40.0462 70.5921 40.3954V39.2763H69.2969V47.9156H70.7529V43.3654C70.7529 42.8641 70.8118 42.4276 70.9273 42.0583C71.0427 41.6868 71.2058 41.3801 71.4164 41.1339C71.627 40.8877 71.8783 40.7065 72.1727 40.5856C72.4671 40.4647 72.7954 40.4065 73.1555 40.4065C73.6197 40.4065 74.0046 40.4938 74.3081 40.6707C74.6138 40.8475 74.8561 41.0847 75.0372 41.3869C75.2184 41.689 75.3452 42.0292 75.4176 42.4075C75.4901 42.7857 75.5263 43.1819 75.5263 43.5915V47.9179H76.9824V43.1416C76.9824 42.8103 76.9507 42.4612 76.8895 42.0897C76.8284 41.7181 76.7265 41.3555 76.5748 40.9952Z" fill="white"/>
<path d="M84.3162 43.5395C83.8701 43.3134 83.2632 43.103 82.4911 42.9128C81.8049 42.7427 81.2841 42.5905 80.9241 42.4562C80.5663 42.3219 80.3195 42.1809 80.1881 42.0332C80.0568 41.8854 79.9889 41.7064 79.9889 41.4982C79.9889 41.1245 80.1655 40.829 80.5187 40.6097C80.872 40.3903 81.3317 40.2919 81.8978 40.3143C82.4956 40.3299 82.987 40.4709 83.3674 40.7373C83.7478 41.0036 83.972 41.3684 84.0422 41.834L85.5141 41.5699C85.4552 41.064 85.265 40.6186 84.9434 40.2381C84.6219 39.8577 84.2007 39.5622 83.6776 39.3541C83.1546 39.1459 82.5613 39.043 81.8978 39.043C81.2298 39.043 80.6433 39.1459 80.1383 39.3541C79.6333 39.5622 79.2416 39.8577 78.9608 40.2381C78.68 40.6186 78.5396 41.064 78.5396 41.5699C78.5396 41.9794 78.6347 42.3308 78.8227 42.6173C79.0106 42.9061 79.3276 43.159 79.7692 43.3761C80.2108 43.5954 80.8176 43.8058 81.5898 44.0072C82.3009 44.193 82.8353 44.3542 83.1885 44.4862C83.5418 44.6183 83.775 44.7615 83.8882 44.9137C84.0014 45.0659 84.0581 45.2651 84.0581 45.5091C84.0581 45.9298 83.8882 46.2633 83.5486 46.5095C83.2089 46.7557 82.7402 46.8766 82.1401 46.8766C81.5083 46.8766 80.9807 46.74 80.555 46.4647C80.1293 46.1895 79.8575 45.8179 79.7375 45.3479L78.2656 45.5807C78.4173 46.3909 78.8249 47.0221 79.4907 47.4719C80.1564 47.9218 81.0101 48.1479 82.0518 48.1479C83.141 48.1479 83.9969 47.9084 84.6174 47.4316C85.2378 46.9549 85.5481 46.2991 85.5481 45.4688C85.5481 45.0211 85.4529 44.6429 85.265 44.3362C85.077 44.0296 84.7623 43.7655 84.3162 43.5395Z" fill="white"/>
<path d="M92.7852 47.918H100.149V46.5662H94.2253V42.712H99.1777V41.3602H94.2253V37.7522H100.149V36.4004H92.7852V47.918Z" fill="white"/>
<path d="M109.053 39.2793H107.339L104.966 42.4463L102.572 39.2793H100.856L104.126 43.5497L100.783 47.9164H102.506L104.966 44.6532L107.411 47.9164H109.134L105.783 43.5497L109.053 39.2793Z" fill="white"/>
<path d="M111.973 40.8044C112.36 40.5291 112.856 40.3926 113.454 40.3926C113.988 40.3926 114.462 40.5314 114.874 40.8089C115.286 41.0864 115.585 41.4759 115.768 41.9772L117.193 41.5542C116.966 40.7753 116.52 40.1621 115.852 39.7144C115.186 39.2668 114.391 39.043 113.47 39.043C112.596 39.043 111.849 39.2355 111.228 39.6182C110.608 40.0031 110.132 40.5358 109.799 41.2229C109.466 41.9078 109.296 42.7024 109.285 43.6021C109.296 44.4817 109.464 45.2651 109.788 45.9545C110.112 46.6416 110.583 47.1832 111.201 47.5749C111.819 47.9666 112.569 48.1635 113.454 48.1635C114.36 48.1635 115.134 47.9509 115.777 47.5234C116.418 47.0959 116.891 46.4804 117.193 45.6747L115.737 45.2987C115.542 45.7888 115.256 46.1648 114.878 46.4222C114.5 46.6819 114.025 46.8094 113.454 46.8094C112.584 46.8094 111.93 46.514 111.491 45.9254C111.051 45.3367 110.825 44.5623 110.816 43.6021C110.82 42.9777 110.918 42.4249 111.108 41.9414C111.296 41.4557 111.584 41.0775 111.973 40.8044Z" fill="white"/>
<path d="M125.772 40.9954C125.62 40.635 125.414 40.3105 125.149 40.0195C124.884 39.7286 124.554 39.4958 124.153 39.319C123.754 39.1421 123.27 39.0549 122.704 39.0549C121.954 39.0549 121.302 39.216 120.75 39.5383C120.371 39.7599 120.052 40.0464 119.789 40.3955V36.4004H118.494V47.918H119.95V43.3678C119.95 42.8665 120.009 42.43 120.125 42.0607C120.24 41.6892 120.403 41.3826 120.614 41.1364C120.824 40.8902 121.076 40.7089 121.37 40.588C121.664 40.4671 121.993 40.409 122.353 40.409C122.817 40.409 123.202 40.4962 123.505 40.6731C123.811 40.8499 124.053 41.0871 124.234 41.3893C124.416 41.6914 124.542 42.0316 124.615 42.4099C124.687 42.7881 124.724 43.1843 124.724 43.5939V47.9203H126.18V43.144C126.18 42.8128 126.148 42.4636 126.087 42.0921C126.026 41.7205 125.921 41.3557 125.772 40.9954Z" fill="white"/>
<path d="M134.67 40.7289C134.421 40.1626 134.013 39.7419 133.445 39.4598C132.876 39.1801 132.195 39.0391 131.402 39.0391C130.415 39.0391 129.62 39.2539 129.015 39.6859C128.411 40.1179 128.003 40.7132 127.793 41.4697L129.16 41.8771C129.321 41.3444 129.602 40.9594 129.998 40.7222C130.394 40.4849 130.856 40.3663 131.386 40.3663C132.186 40.3663 132.747 40.5498 133.073 40.9191C133.368 41.2504 133.522 41.745 133.537 42.3986C133.229 42.4411 132.91 42.4836 132.575 42.5261C132.045 42.5955 131.524 42.6716 131.008 42.7544C130.492 42.8373 130.028 42.9335 129.613 43.0454C129.172 43.173 128.791 43.3475 128.472 43.5691C128.153 43.7907 127.906 44.0682 127.731 44.4017C127.557 44.7352 127.469 45.1291 127.469 45.5812C127.469 46.0445 127.58 46.472 127.804 46.8615C128.028 47.2509 128.359 47.5643 128.8 47.8015C129.24 48.0388 129.785 48.1574 130.44 48.1574C131.287 48.1574 132.007 47.9783 132.595 47.6225C133.026 47.3628 133.386 47.0114 133.676 46.5705V47.9179H134.955V42.5754C134.955 42.2352 134.939 41.9084 134.907 41.5951C134.873 41.2839 134.794 40.9952 134.67 40.7289ZM133.377 44.9747C133.306 45.3328 133.155 45.6618 132.924 45.9617C132.693 46.2639 132.385 46.5056 132.004 46.6891C131.624 46.8727 131.176 46.9644 130.657 46.9644C130.243 46.9644 129.905 46.8973 129.649 46.7652C129.394 46.6332 129.206 46.4586 129.083 46.246C128.961 46.0334 128.902 45.8095 128.902 45.5745C128.902 45.3037 128.966 45.0754 129.092 44.8897C129.219 44.7039 129.387 44.5539 129.595 44.4375C129.803 44.3212 130.025 44.2249 130.263 44.1488C130.587 44.0571 130.951 43.9787 131.357 43.9138C131.762 43.8467 132.19 43.784 132.643 43.7258C132.931 43.6878 133.227 43.6475 133.522 43.6094C133.519 43.7437 133.517 43.9004 133.513 44.0817C133.501 44.4107 133.456 44.7084 133.377 44.9747Z" fill="white"/>
<path d="M143.985 40.9952C143.833 40.6348 143.627 40.3103 143.362 40.0193C143.097 39.7284 142.767 39.4956 142.366 39.3188C141.967 39.142 141.483 39.0547 140.917 39.0547C140.167 39.0547 139.515 39.2158 138.962 39.5381C138.584 39.7597 138.265 40.0462 138.002 40.3954V39.2763H136.707V47.9156H138.163V43.3654C138.163 42.8641 138.222 42.4276 138.337 42.0583C138.453 41.6868 138.616 41.3801 138.827 41.1339C139.037 40.8877 139.289 40.7065 139.583 40.5856C139.877 40.4647 140.206 40.4065 140.566 40.4065C141.03 40.4065 141.415 40.4938 141.718 40.6707C142.024 40.8475 142.266 41.0847 142.447 41.3869C142.629 41.689 142.755 42.0292 142.828 42.4075C142.9 42.7857 142.937 43.1819 142.937 43.5915V47.9179H144.393V43.1416C144.393 42.8103 144.361 42.4612 144.3 42.0897C144.239 41.7181 144.137 41.3555 143.985 40.9952Z" fill="white"/>
<path d="M152.326 40.2432C152.132 40.0104 151.912 39.8068 151.663 39.6299C151.101 39.236 150.408 39.0391 149.584 39.0391C148.776 39.0391 148.078 39.2383 147.496 39.6344C146.914 40.0306 146.464 40.5744 146.149 41.2616C145.834 41.9487 145.676 42.7253 145.676 43.5893C145.676 44.4532 145.834 45.2298 146.149 45.917C146.464 46.6041 146.914 47.1502 147.496 47.5531C148.078 47.956 148.778 48.1574 149.593 48.1574C150.413 48.1574 151.104 47.956 151.665 47.5531C151.844 47.4255 152.007 47.28 152.159 47.1233V47.9582C152.163 48.5446 152.08 49.0347 151.903 49.4309C151.729 49.8248 151.457 50.1225 151.09 50.3239C150.723 50.5254 150.261 50.6239 149.706 50.6239C149.285 50.6239 148.878 50.5276 148.479 50.3351C148.083 50.1427 147.777 49.836 147.56 49.4152L146.24 50.1024C146.482 50.5299 146.785 50.8835 147.15 51.1633C147.515 51.443 147.915 51.6534 148.352 51.7922C148.789 51.9309 149.238 52.0003 149.695 52.0003C150.39 52.0003 151.004 51.9018 151.532 51.7094C152.059 51.5146 152.492 51.2192 152.827 50.8208C153.162 50.4224 153.386 49.9188 153.499 49.3056C153.542 49.0929 153.572 48.8758 153.585 48.6587C153.599 48.4394 153.606 48.2133 153.606 47.9783V39.283H152.326V40.2432ZM152.057 45.2746C151.876 45.767 151.597 46.1542 151.219 46.434C150.841 46.7138 150.359 46.8548 149.77 46.8548C149.197 46.8548 148.721 46.7115 148.341 46.4228C147.961 46.1341 147.675 45.7446 147.487 45.25C147.299 44.7576 147.204 44.2025 147.204 43.5893C147.204 42.9805 147.297 42.4321 147.483 41.942C147.668 41.4518 147.954 41.0624 148.341 40.7736C148.726 40.4849 149.217 40.3417 149.811 40.3417C150.384 40.3417 150.855 40.4782 151.226 40.7535C151.597 41.0288 151.874 41.4093 152.055 41.8972C152.236 42.3851 152.326 42.9492 152.326 43.5893C152.326 44.2204 152.238 44.7822 152.057 45.2746Z" fill="white"/>
<path d="M161.493 39.6389C160.875 39.2383 160.127 39.0391 159.246 39.0391C158.4 39.0391 157.661 39.2271 157.034 39.6031C156.405 39.9791 155.915 40.5118 155.564 41.2034C155.213 41.895 155.039 42.7119 155.039 43.6542C155.039 44.5562 155.218 45.344 155.573 46.0177C155.929 46.6914 156.427 47.2174 157.066 47.5934C157.704 47.9694 158.454 48.1574 159.312 48.1574C160.159 48.1574 160.924 47.947 161.606 47.5285C162.288 47.1099 162.799 46.519 163.139 45.7558L161.755 45.2836C161.513 45.7737 161.178 46.1497 160.752 46.4116C160.327 46.6735 159.824 46.8033 159.246 46.8033C158.388 46.8033 157.727 46.5235 157.263 45.964C156.862 45.4805 156.636 44.8225 156.581 43.9966H161.828H162.539H163.284C163.327 42.9715 163.193 42.0897 162.883 41.3489C162.575 40.6103 162.111 40.0395 161.493 39.6389ZM157.265 41.1676C157.729 40.6013 158.406 40.3193 159.296 40.3193C160.127 40.3193 160.752 40.5812 161.173 41.1071C161.506 41.5212 161.71 42.1054 161.789 42.8551H156.611C156.699 42.1546 156.916 41.5928 157.265 41.1676Z" fill="white"/>
<path d="M180.448 41.9895H176.451V43.1645H178.928C178.87 43.9277 178.7 44.5813 178.419 45.1251C178.138 45.669 177.742 46.0853 177.23 46.3741C176.718 46.6628 176.087 46.8038 175.337 46.7971C174.467 46.7926 173.745 46.5934 173.163 46.2017C172.581 45.81 172.146 45.2661 171.857 44.5746C171.564 43.8807 171.422 43.075 171.429 42.1596C171.433 41.2374 171.583 40.4272 171.875 39.7267C172.167 39.0284 172.599 38.4867 173.174 38.0995C173.75 37.7123 174.47 37.5221 175.339 37.5265C176.17 37.5265 176.863 37.7347 177.42 38.151C177.975 38.5673 178.376 39.1246 178.618 39.8229L180.074 39.5275C179.773 38.4867 179.223 37.6676 178.423 37.0677C177.624 36.4679 176.573 36.168 175.267 36.168C174.182 36.168 173.238 36.4119 172.434 36.8999C171.63 37.3878 171.007 38.0794 170.566 38.9746C170.124 39.8699 169.902 40.9308 169.902 42.1573C169.902 43.0862 170.031 43.9188 170.287 44.6574C170.543 45.396 170.91 46.0249 171.383 46.5442C171.859 47.0634 172.425 47.4618 173.082 47.7393C173.741 48.0169 174.467 48.1556 175.267 48.1556C176.406 48.1556 177.361 47.9184 178.136 47.4439C178.91 46.9694 179.495 46.3181 179.893 45.4877C180.289 44.6574 180.489 43.7196 180.489 42.6676C180.489 42.6139 180.486 42.5154 180.484 42.3677C180.475 42.2222 180.464 42.0969 180.448 41.9895Z" fill="white"/>
<path d="M185.433 39.2185C185.136 39.2364 184.844 39.2946 184.559 39.3908C184.274 39.487 184.018 39.6258 183.789 39.8071C183.583 39.9503 183.4 40.1361 183.234 40.3599C183.164 40.4562 183.103 40.5569 183.044 40.6598V39.2811H181.758V47.9205H183.207V43.5851C183.207 43.2449 183.236 42.9092 183.295 42.5802C183.354 42.2512 183.461 41.9468 183.615 41.6648C183.769 41.3828 183.986 41.1433 184.267 40.9441C184.575 40.7203 184.908 40.5905 185.27 40.5524C185.632 40.5144 185.963 40.5367 186.266 40.6173V39.2811C186.008 39.2185 185.73 39.1983 185.433 39.2185Z" fill="white"/>
<path d="M193.284 39.6188C192.652 39.2316 191.9 39.0391 191.026 39.0391C190.172 39.0391 189.432 39.2293 188.8 39.612C188.168 39.9925 187.681 40.5252 187.335 41.2079C186.989 41.8905 186.816 42.6851 186.816 43.5915C186.816 44.4823 186.986 45.2701 187.326 45.9595C187.666 46.6466 188.15 47.186 188.78 47.5755C189.409 47.9649 190.156 48.1596 191.026 48.1596C191.893 48.1596 192.645 47.9671 193.275 47.5799C193.906 47.1927 194.391 46.6578 194.731 45.9729C195.07 45.288 195.24 44.4935 195.24 43.5938C195.24 42.703 195.07 41.9151 194.735 41.2302C194.4 40.5431 193.915 40.006 193.284 39.6188ZM193.05 45.9103C192.609 46.5079 191.934 46.8055 191.028 46.8055C190.15 46.8055 189.482 46.5123 189.029 45.9259C188.576 45.3395 188.349 44.5606 188.349 43.5893C188.349 42.9603 188.447 42.4053 188.642 41.9263C188.836 41.4473 189.131 41.0713 189.525 40.7983C189.919 40.5274 190.419 40.3909 191.031 40.3909C191.925 40.3909 192.598 40.6796 193.046 41.2593C193.494 41.839 193.718 42.6157 193.718 43.5915C193.714 44.5405 193.492 45.3149 193.05 45.9103Z" fill="white"/>
<path d="M202.747 43.8292C202.747 44.3261 202.691 44.7603 202.578 45.1341C202.464 45.5078 202.304 45.8145 202.093 46.0584C201.882 46.3002 201.629 46.4837 201.332 46.6068C201.035 46.7299 200.707 46.7903 200.345 46.7903C199.887 46.7903 199.505 46.703 199.199 46.5262C198.893 46.3494 198.651 46.1099 198.47 45.8055C198.289 45.5011 198.162 45.1609 198.085 44.7827C198.01 44.4044 197.972 44.0127 197.972 43.6076V39.2812H196.516V44.0575C196.516 44.382 196.547 44.7312 196.608 45.105C196.67 45.4787 196.778 45.8436 196.928 46.2017C197.079 46.5598 197.286 46.8843 197.55 47.1775C197.815 47.4707 198.148 47.7057 198.549 47.8826C198.952 48.0594 199.432 48.1467 199.994 48.1467C200.743 48.1467 201.395 47.9855 201.948 47.6632C202.326 47.4439 202.645 47.1551 202.906 46.8038V47.9228H204.192V39.2835H202.743V43.8292H202.747Z" fill="white"/>
<path d="M213.582 41.2616C213.269 40.5744 212.819 40.0306 212.234 39.6344C211.648 39.236 210.95 39.0391 210.142 39.0391C209.322 39.0391 208.629 39.236 208.066 39.6299C207.816 39.8045 207.595 40.0104 207.398 40.2432V39.2785H206.111V51.7564H207.561V47.1144C207.715 47.2755 207.88 47.4233 208.063 47.5531C208.625 47.9559 209.316 48.1574 210.135 48.1574C210.95 48.1574 211.65 47.9559 212.234 47.5531C212.819 47.1502 213.269 46.6041 213.582 45.917C213.894 45.2299 214.05 44.4532 214.05 43.5893C214.05 42.7253 213.894 41.9487 213.582 41.2616ZM212.239 45.25C212.051 45.7424 211.768 46.1341 211.39 46.4228C211.012 46.7115 210.534 46.8548 209.956 46.8548C209.368 46.8548 208.885 46.716 208.507 46.434C208.129 46.152 207.85 45.767 207.669 45.2746C207.488 44.7822 207.398 44.2204 207.398 43.5915C207.398 42.9514 207.488 42.3874 207.672 41.8995C207.855 41.4115 208.133 41.031 208.505 40.7557C208.876 40.4804 209.347 40.3439 209.913 40.3439C210.507 40.3439 210.996 40.4872 211.383 40.7759C211.768 41.0646 212.055 41.454 212.241 41.9442C212.427 42.4344 212.52 42.985 212.52 43.5915C212.522 44.2025 212.427 44.7554 212.239 45.25Z" fill="white"/>
</svg>
