<svg width="12" height="12" viewBox="0 0 12 12" fill="none" xmlns="http://www.w3.org/2000/svg">
<path d="M6.03863 7.87352C5.68417 7.87352 5.36236 7.7919 5.0732 7.62866C4.78869 7.46542 4.56016 7.24388 4.3876 6.96405C4.21969 6.67955 4.13574 6.36007 4.13574 6.00561C4.13574 5.65115 4.21969 5.334 4.3876 5.05416C4.56016 4.76966 4.78869 4.54579 5.0732 4.38255C5.36236 4.21931 5.68417 4.1377 6.03863 4.1377C6.36977 4.1377 6.67293 4.21931 6.9481 4.38255C7.22794 4.54579 7.44948 4.76966 7.61271 5.05416C7.78062 5.334 7.86457 5.65115 7.86457 6.00561C7.86457 6.36007 7.78062 6.67955 7.61271 6.96405C7.44948 7.24388 7.22794 7.46542 6.9481 7.62866C6.67293 7.7919 6.36977 7.87352 6.03863 7.87352Z" fill="#5F4D96"/>
</svg>
