<svg width="748" height="252" viewBox="0 0 748 252" fill="none" xmlns="http://www.w3.org/2000/svg">
<g clip-path="url(#clip0_4587_272411)">
<g opacity="0.3">
<path d="M544.38 -46.8438C517.484 1.26224 465.948 29.6967 404.25 36.6978C342.553 43.6988 270.759 29.2521 203.514 -8.34388C136.27 -45.9399 86.3636 -99.5354 60.0165 -155.761C33.6687 -211.989 30.9022 -270.783 57.7981 -318.889C84.6939 -366.995 136.23 -395.43 197.928 -402.431C259.625 -409.432 331.419 -394.985 398.664 -357.389C465.908 -319.793 515.814 -266.198 542.162 -209.972C568.509 -153.744 571.276 -94.9498 544.38 -46.8438Z" stroke="url(#paint0_linear_4587_272411)" stroke-width="1.55556"/>
<path d="M566.371 -37.5473C538.094 13.0283 483.893 42.9074 419 50.2474C354.11 57.5873 278.594 42.3739 207.856 2.82509C137.119 -36.7237 84.6106 -93.0883 56.8796 -152.213C29.1479 -211.338 26.2161 -273.16 54.4927 -323.736C82.7692 -374.311 136.971 -404.19 201.863 -411.53C266.754 -418.87 342.27 -403.657 413.007 -364.108C483.744 -324.559 536.253 -268.195 563.984 -209.07C591.715 -149.945 594.647 -88.1229 566.371 -37.5473Z" stroke="url(#paint1_linear_4587_272411)" stroke-width="1.55556"/>
<path d="M566.371 -37.5473C538.094 13.0283 483.893 42.9074 419 50.2474C354.11 57.5873 278.594 42.3739 207.856 2.82509C137.119 -36.7237 84.6106 -93.0883 56.8796 -152.213C29.1479 -211.338 26.2161 -273.16 54.4927 -323.736C82.7692 -374.311 136.971 -404.19 201.863 -411.53C266.754 -418.87 342.27 -403.657 413.007 -364.108C483.744 -324.559 536.253 -268.195 563.984 -209.07C591.715 -149.945 594.647 -88.1229 566.371 -37.5473Z" stroke="url(#paint2_linear_4587_272411)" stroke-width="1.55556"/>
<path d="M579.342 -22.9258C550.199 29.1998 494.312 59.9785 427.394 67.5196C360.477 75.0605 282.596 59.3496 209.634 18.5571C136.672 -22.2354 82.5011 -80.3544 53.8804 -141.31C25.259 -202.266 22.2106 -265.996 51.3538 -318.121C80.497 -370.247 136.384 -401.026 203.303 -408.567C270.219 -416.108 348.1 -400.397 421.062 -359.604C494.024 -318.812 548.195 -260.693 576.816 -199.738C605.437 -138.781 608.485 -75.0515 579.342 -22.9258Z" stroke="url(#paint3_linear_4587_272411)" stroke-width="1.55556"/>
<path d="M593.988 -5.89465C563.804 48.0916 505.945 79.9783 436.679 87.807C367.415 95.6356 286.811 79.392 211.307 37.1782C135.803 -5.03558 79.7519 -65.1953 50.1468 -128.301C20.5411 -191.408 17.4037 -257.398 47.5872 -311.384C77.7706 -365.371 135.63 -397.257 204.896 -405.086C274.16 -412.915 354.764 -396.671 430.268 -354.457C505.772 -312.244 561.823 -252.084 591.428 -188.978C621.034 -125.871 624.171 -59.8809 593.988 -5.89465Z" stroke="url(#paint4_linear_4587_272411)" stroke-width="1.55556"/>
<path d="M607.796 9.93161C576.659 65.6232 516.97 98.5137 445.518 106.587C374.067 114.66 290.919 97.9011 213.032 54.3548C135.145 10.8085 77.3225 -51.2488 46.7804 -116.345C16.2377 -181.443 12.9975 -249.517 44.1344 -305.209C75.2713 -360.9 134.96 -393.791 206.412 -401.864C277.863 -409.937 361.012 -393.178 438.899 -349.632C516.786 -306.086 574.608 -244.028 605.15 -178.932C635.693 -113.834 638.933 -45.76 607.796 9.93161Z" stroke="url(#paint5_linear_4587_272411)" stroke-width="1.55556"/>
<path d="M618.78 22.7049C586.863 79.7919 525.695 113.513 452.482 121.802C379.271 130.091 294.08 112.933 214.286 68.3205C134.493 23.7083 75.2606 -39.8796 43.9803 -106.589C12.6993 -173.3 9.39242 -243.069 41.3095 -300.156C73.2265 -357.243 134.395 -390.965 207.608 -399.253C280.819 -407.542 366.01 -390.384 445.803 -345.772C525.597 -301.159 584.829 -237.572 616.109 -170.862C647.39 -104.151 650.697 -34.382 618.78 22.7049Z" stroke="url(#paint6_linear_4587_272411)" stroke-width="1.55556"/>
<path d="M630.601 36.6831C597.817 95.3208 535.027 129.978 459.892 138.526C384.759 147.073 297.348 129.498 215.489 83.731C133.63 37.964 72.8788 -27.2976 40.8129 -95.7797C8.74632 -164.263 5.38656 -235.904 38.1706 -294.542C70.9546 -353.18 133.745 -387.836 208.879 -396.384C284.012 -404.932 371.424 -387.357 453.283 -341.59C535.142 -295.823 595.893 -230.561 627.959 -162.079C660.025 -93.5956 663.385 -21.9545 630.601 36.6831Z" stroke="url(#paint7_linear_4587_272411)" stroke-width="1.55556"/>
</g>
</g>
<defs>
<linearGradient id="paint0_linear_4587_272411" x1="104.924" y1="-522.509" x2="711.565" y2="317.911" gradientUnits="userSpaceOnUse">
<stop stop-color="#00845D"/>
<stop offset="1" stop-color="#00B57F" stop-opacity="0.76"/>
</linearGradient>
<linearGradient id="paint1_linear_4587_272411" x1="104.019" y1="-537.752" x2="741.769" y2="346.302" gradientUnits="userSpaceOnUse">
<stop stop-color="#00845D"/>
<stop offset="1" stop-color="#00B57F" stop-opacity="0.76"/>
</linearGradient>
<linearGradient id="paint2_linear_4587_272411" x1="104.019" y1="-537.752" x2="741.769" y2="346.302" gradientUnits="userSpaceOnUse">
<stop stop-color="#00845D"/>
<stop offset="1" stop-color="#00B57F" stop-opacity="0.76"/>
</linearGradient>
<linearGradient id="paint3_linear_4587_272411" x1="102.363" y1="-538.678" x2="759.724" y2="373.204" gradientUnits="userSpaceOnUse">
<stop stop-color="#00845D"/>
<stop offset="1" stop-color="#00B57F" stop-opacity="0.76"/>
</linearGradient>
<linearGradient id="paint4_linear_4587_272411" x1="100.471" y1="-539.736" x2="781.032" y2="403.8" gradientUnits="userSpaceOnUse">
<stop stop-color="#00845D"/>
<stop offset="1" stop-color="#00B57F" stop-opacity="0.76"/>
</linearGradient>
<linearGradient id="paint5_linear_4587_272411" x1="98.6971" y1="-540.728" x2="800.664" y2="432.549" gradientUnits="userSpaceOnUse">
<stop stop-color="#00845D"/>
<stop offset="1" stop-color="#00B57F" stop-opacity="0.76"/>
</linearGradient>
<linearGradient id="paint6_linear_4587_272411" x1="97.2778" y1="-541.522" x2="816.645" y2="455.496" gradientUnits="userSpaceOnUse">
<stop stop-color="#00845D"/>
<stop offset="1" stop-color="#00B57F" stop-opacity="0.76"/>
</linearGradient>
<linearGradient id="paint7_linear_4587_272411" x1="95.7402" y1="-542.381" x2="834.302" y2="480.289" gradientUnits="userSpaceOnUse">
<stop stop-color="#00845D"/>
<stop offset="1" stop-color="#00B57F" stop-opacity="0.76"/>
</linearGradient>
<clipPath id="clip0_4587_272411">
<rect width="747.859" height="252" fill="white"/>
</clipPath>
</defs>
</svg>
