<svg width="351" height="144" viewBox="0 0 351 144" fill="none" xmlns="http://www.w3.org/2000/svg">
<g clip-path="url(#clip0_4587_272493)">
<g opacity="0.3">
<path d="M311.074 -26.7679C295.705 0.721284 266.256 16.9695 231 20.9702C195.745 24.9707 154.719 16.7155 116.294 -4.76791C77.8686 -26.2513 49.3507 -56.8774 34.2952 -89.0065C19.2394 -121.136 17.6585 -154.733 33.0276 -182.222C48.3966 -209.712 77.8456 -225.96 113.102 -229.96C148.357 -233.961 189.383 -225.706 227.808 -204.222C266.233 -182.739 294.751 -152.113 309.807 -119.984C324.863 -87.8539 326.443 -54.257 311.074 -26.7679Z" stroke="url(#paint0_linear_4587_272493)" stroke-width="0.888889"/>
<path d="M323.64 -21.4555C307.482 7.4448 276.51 24.5186 239.429 28.7129C202.348 32.9071 159.196 24.2137 118.775 1.61439C78.3538 -20.9849 48.3489 -53.1933 32.5026 -86.9785C16.6559 -120.765 14.9806 -156.091 31.1387 -184.992C47.2967 -213.892 78.2689 -230.966 115.35 -235.16C152.431 -239.354 195.583 -230.661 236.004 -208.062C276.425 -185.462 306.43 -153.254 322.276 -119.469C338.123 -85.6827 339.798 -50.3559 323.64 -21.4555Z" stroke="url(#paint1_linear_4587_272493)" stroke-width="0.888889"/>
<path d="M323.64 -21.4555C307.482 7.4448 276.51 24.5186 239.429 28.7129C202.348 32.9071 159.196 24.2137 118.775 1.61439C78.3538 -20.9849 48.3489 -53.1933 32.5026 -86.9785C16.6559 -120.765 14.9806 -156.091 31.1387 -184.992C47.2967 -213.892 78.2689 -230.966 115.35 -235.16C152.431 -239.354 195.583 -230.661 236.004 -208.062C276.425 -185.462 306.43 -153.254 322.276 -119.469C338.123 -85.6827 339.798 -50.3559 323.64 -21.4555Z" stroke="url(#paint2_linear_4587_272493)" stroke-width="0.888889"/>
<path d="M331.053 -13.1004C314.399 16.6857 282.464 34.2735 244.225 38.5827C205.987 42.8918 161.483 33.9141 119.791 10.6041C78.0984 -12.7059 47.1435 -45.9168 30.7888 -80.7483C14.4337 -115.581 12.6918 -151.998 29.345 -181.784C45.9983 -211.57 77.9339 -229.158 116.173 -233.467C154.411 -237.776 198.914 -228.798 240.607 -205.488C282.299 -182.178 313.254 -148.967 329.609 -114.136C345.964 -79.3032 347.706 -42.8865 331.053 -13.1004Z" stroke="url(#paint3_linear_4587_272493)" stroke-width="0.888889"/>
<path d="M339.422 -3.36832C322.174 27.481 289.111 45.7019 249.531 50.1755C209.951 54.649 163.892 45.3669 120.747 21.2447C77.6017 -2.87742 45.5725 -37.2544 28.6553 -73.3148C11.7378 -109.376 9.94499 -147.085 27.1927 -177.934C44.4403 -208.783 77.503 -227.004 117.083 -231.478C156.663 -235.951 202.722 -226.669 245.868 -202.547C289.013 -178.425 321.042 -144.048 337.959 -107.987C354.876 -71.9261 356.669 -34.2176 339.422 -3.36832Z" stroke="url(#paint4_linear_4587_272493)" stroke-width="0.888889"/>
<path d="M347.312 5.67525C329.52 37.499 295.412 56.2936 254.582 60.9068C213.753 65.5199 166.239 55.9435 121.732 31.0599C77.2256 6.17633 44.1843 -29.285 26.7317 -66.483C9.2787 -103.682 7.42717 -142.581 25.2197 -174.405C43.0122 -206.229 77.1201 -225.023 117.95 -229.637C158.779 -234.25 206.292 -224.673 250.799 -199.79C295.306 -174.906 328.347 -139.445 345.8 -102.247C363.253 -65.0478 365.105 -26.1485 347.312 5.67525Z" stroke="url(#paint5_linear_4587_272493)" stroke-width="0.888889"/>
<path d="M353.589 12.9743C335.35 45.5954 300.397 64.8649 258.561 69.6014C216.726 74.3378 168.046 64.533 122.449 39.0403C76.8531 13.5476 43.0061 -22.7883 25.1316 -60.908C7.25677 -99.0285 5.3671 -138.897 23.6054 -171.518C41.8437 -204.139 76.7969 -223.408 118.633 -228.145C160.468 -232.881 209.148 -223.076 254.745 -197.584C300.341 -172.091 334.188 -135.755 352.063 -97.6354C369.937 -59.5149 371.827 -19.6468 353.589 12.9743Z" stroke="url(#paint6_linear_4587_272493)" stroke-width="0.888889"/>
<path d="M360.344 20.9618C341.61 54.4691 305.73 74.273 262.796 79.1575C219.863 84.0419 169.913 73.9988 123.136 47.8463C76.3598 21.6938 41.645 -15.5985 23.3217 -54.7312C4.9979 -93.8646 3.07804 -134.802 21.8118 -168.31C40.5455 -201.817 76.4257 -221.621 119.36 -226.505C162.293 -231.39 212.242 -221.347 259.019 -195.194C305.796 -169.042 340.51 -131.749 358.834 -92.6165C377.157 -53.4831 379.077 -12.5454 360.344 20.9618Z" stroke="url(#paint7_linear_4587_272493)" stroke-width="0.888889"/>
</g>
</g>
<defs>
<linearGradient id="paint0_linear_4587_272493" x1="59.9567" y1="-298.576" x2="406.609" y2="181.663" gradientUnits="userSpaceOnUse">
<stop stop-color="#00845D"/>
<stop offset="1" stop-color="#00B57F" stop-opacity="0.76"/>
</linearGradient>
<linearGradient id="paint1_linear_4587_272493" x1="59.4396" y1="-307.287" x2="423.868" y2="197.887" gradientUnits="userSpaceOnUse">
<stop stop-color="#00845D"/>
<stop offset="1" stop-color="#00B57F" stop-opacity="0.76"/>
</linearGradient>
<linearGradient id="paint2_linear_4587_272493" x1="59.4396" y1="-307.287" x2="423.868" y2="197.887" gradientUnits="userSpaceOnUse">
<stop stop-color="#00845D"/>
<stop offset="1" stop-color="#00B57F" stop-opacity="0.76"/>
</linearGradient>
<linearGradient id="paint3_linear_4587_272493" x1="58.4934" y1="-307.816" x2="434.128" y2="213.26" gradientUnits="userSpaceOnUse">
<stop stop-color="#00845D"/>
<stop offset="1" stop-color="#00B57F" stop-opacity="0.76"/>
</linearGradient>
<linearGradient id="paint4_linear_4587_272493" x1="57.4121" y1="-308.421" x2="446.304" y2="230.743" gradientUnits="userSpaceOnUse">
<stop stop-color="#00845D"/>
<stop offset="1" stop-color="#00B57F" stop-opacity="0.76"/>
</linearGradient>
<linearGradient id="paint5_linear_4587_272493" x1="56.3983" y1="-308.987" x2="457.522" y2="247.171" gradientUnits="userSpaceOnUse">
<stop stop-color="#00845D"/>
<stop offset="1" stop-color="#00B57F" stop-opacity="0.76"/>
</linearGradient>
<linearGradient id="paint6_linear_4587_272493" x1="55.5873" y1="-309.441" x2="466.654" y2="260.284" gradientUnits="userSpaceOnUse">
<stop stop-color="#00845D"/>
<stop offset="1" stop-color="#00B57F" stop-opacity="0.76"/>
</linearGradient>
<linearGradient id="paint7_linear_4587_272493" x1="54.7087" y1="-309.932" x2="476.744" y2="274.451" gradientUnits="userSpaceOnUse">
<stop stop-color="#00845D"/>
<stop offset="1" stop-color="#00B57F" stop-opacity="0.76"/>
</linearGradient>
<clipPath id="clip0_4587_272493">
<rect width="351" height="144" fill="white"/>
</clipPath>
</defs>
</svg>
