<svg xmlns="http://www.w3.org/2000/svg" width="126" height="28" viewBox="0 0 126 28" fill="none">
  <path d="M42.5254 0.845976C42.5254 1.82709 43.3238 2.62531 44.3052 2.62531H54.9874V0.730957H42.5254V0.845976Z" fill="#3D07D9"/>
  <path d="M69.1708 0.729736H66.6053L62.6097 5.37649L58.6141 0.729736H56.0473L61.3269 6.86828L55.999 13.0632H58.5646L62.6097 8.36007L66.6536 13.0632H69.2203L63.8924 6.86828L69.1708 0.729736Z" fill="#3D07D9"/>
  <path d="M44.8203 6.06433C44.8203 7.04544 45.6187 7.84367 46.6001 7.84367H54.9871V5.94931H44.8203V6.06433Z" fill="#3D07D9"/>
  <path d="M47.1147 11.2839C47.1147 12.2649 47.9131 13.063 48.8944 13.063H54.9843V11.1689H47.1147V11.2839Z" fill="#3D07D9"/>
  <path d="M3.91507 10.1797H11.7602L13.41 13.062H15.6764L8.61822 0.729736H7.05702L0 13.062H2.26644L3.91507 10.1797ZM4.99997 8.28416L7.83705 3.32571L10.6753 8.28416H4.99997Z" fill="#3D07D9"/>
  <path d="M39.4964 5.92858H29.3423V0.729736H27.5073V13.0632H29.3423V7.82409H39.4964V13.0632H41.3315V0.730884H39.4964V5.92858Z" fill="#3D07D9"/>
  <path d="M13.0889 2.62639H18.7826V13.0632H20.6176V2.62639H26.3113V0.729736H13.0889V2.62639Z" fill="#3D07D9"/>
  <path d="M75.9137 7.52628H81.5096C81.4371 8.39122 81.1944 9.16069 80.7871 9.81515C80.3453 10.5271 79.7471 11.0826 79.0085 11.4691C78.2676 11.8567 77.4277 12.0523 76.512 12.0523C75.5617 12.0523 74.693 11.8418 73.9291 11.4277C73.1687 11.0159 72.5589 10.4155 72.116 9.64377C71.6719 8.86969 71.4464 7.95184 71.4464 6.91437C71.4464 5.87691 71.6719 4.95791 72.116 4.18498C72.5589 3.4132 73.1698 2.80936 73.9303 2.39299C74.6942 1.97317 75.5628 1.76154 76.512 1.76154C77.598 1.76154 78.5506 2.01688 79.341 2.52181C80.1279 3.02444 80.6985 3.70535 81.0379 4.54729L81.0943 4.68646H82.5059L82.3828 4.38051C81.9134 3.21537 81.1576 2.28947 80.1371 1.63042C79.1189 0.972509 77.8994 0.640106 76.512 0.640106C75.3201 0.640106 74.2282 0.908099 73.2676 1.43718C72.3035 1.96742 71.5384 2.71849 70.9943 3.66855C70.4512 4.61745 70.1763 5.70898 70.1763 6.91553C70.1763 8.11057 70.4512 9.1975 70.9943 10.1452C71.5384 11.0953 72.3035 11.8464 73.2676 12.3766C74.2282 12.9057 75.3201 13.1737 76.512 13.1737C77.6797 13.1737 78.7473 12.9137 79.6838 12.4031C80.6226 11.8901 81.375 11.1689 81.9192 10.2591C82.4622 9.35047 82.7567 8.313 82.7936 7.16972V6.4405H75.9125V7.52628H75.9137Z" fill="#575756"/>
  <path d="M91.2281 6.77703C91.8079 6.14558 92.1025 5.33585 92.1025 4.36969C92.1025 3.28276 91.724 2.39597 90.9784 1.73461C90.241 1.08016 89.1319 0.748901 87.6846 0.748901H84.002V13.0628H85.2537V8.00773H87.6697L90.8968 13.0628H92.3947L89.0594 7.88351C89.9844 7.70983 90.7138 7.33832 91.2281 6.77703ZM90.8151 4.36969C90.8151 5.13456 90.562 5.75682 90.0627 6.21804C89.5576 6.68387 88.7707 6.91965 87.7214 6.91965H85.2548V1.86918H87.6858C89.7912 1.87033 90.8151 2.68812 90.8151 4.36969Z" fill="#575756"/>
  <path d="M102.649 1.43596C101.688 0.906878 100.596 0.638885 99.4045 0.638885C98.2126 0.638885 97.1208 0.906878 96.1602 1.43596C95.1961 1.9662 94.431 2.71727 93.8868 3.66733C93.3438 4.61508 93.0688 5.70776 93.0688 6.9143C93.0688 8.10935 93.3438 9.19858 93.8868 10.1521C94.431 11.1079 95.1961 11.8624 96.1602 12.3926C97.1208 12.9217 98.2126 13.1897 99.4045 13.1897C100.596 13.1897 101.688 12.9217 102.649 12.3926C103.613 11.8624 104.378 11.1079 104.922 10.1521C105.465 9.19858 105.74 8.1082 105.74 6.9143C105.74 5.70891 105.465 4.61623 104.922 3.66733C104.378 2.71727 103.613 1.9662 102.649 1.43596ZM104.453 6.9143C104.453 7.95177 104.231 8.87077 103.791 9.64485C103.354 10.4155 102.747 11.0182 101.986 11.4368C101.222 11.8567 100.354 12.0683 99.4045 12.0683C98.4554 12.0683 97.5868 11.8555 96.8229 11.4368C96.0624 11.0193 95.4515 10.4166 95.0085 9.6437C94.5645 8.87077 94.339 7.95177 94.339 6.9143C94.339 5.86533 94.5645 4.94058 95.0085 4.16766C95.4515 3.39588 96.0624 2.79204 96.8229 2.37567C97.5868 1.95585 98.4554 1.74421 99.4045 1.74421C100.354 1.74421 101.222 1.957 101.986 2.37567C102.747 2.79319 103.354 3.39588 103.791 4.16766C104.23 4.94058 104.453 5.86533 104.453 6.9143Z" fill="#575756"/>
  <path d="M115.024 8.38555C115.024 9.67031 114.727 10.6123 114.14 11.1851C113.552 11.7602 112.731 12.0512 111.696 12.0512C110.65 12.0512 109.815 11.7567 109.216 11.1759C108.619 10.5962 108.315 9.65766 108.315 8.38555V0.740257H107.063V8.36829C107.063 9.95785 107.494 11.1702 108.343 11.9707C109.188 12.7678 110.316 13.1726 111.695 13.1726C113.075 13.1726 114.194 12.7712 115.022 11.9776C115.853 11.1828 116.274 9.96821 116.274 8.36715V0.739105H115.022V8.38555H115.024Z" fill="#575756"/>
  <path d="M124.903 1.70156C124.183 1.06435 123.09 0.74115 121.654 0.74115H117.936V13.0551H119.188V7.847H121.654C123.064 7.847 124.15 7.53645 124.88 6.92455C125.624 6.3023 126 5.42356 126 4.31133C126.001 3.22325 125.632 2.34566 124.903 1.70156ZM124.749 4.31018C124.749 5.93539 123.737 6.72557 121.656 6.72557H119.189V1.86143H121.656C122.754 1.86143 123.555 2.07307 124.037 2.49173C124.509 2.90235 124.749 3.51425 124.749 4.31018Z" fill="#575756"/>
  <path d="M19.2326 19.3446L17.2505 25.2628H18.0109L18.4745 23.8782H21.0053L21.4735 25.2628H22.2338L20.2518 19.3446H19.2326ZM18.7057 23.1916L19.7353 20.114L20.774 23.1916H18.7057Z" fill="#575756"/>
  <path d="M23.7784 19.5907H23.0467V20.8235H22.146V21.4273H23.0467V23.5849C23.0467 23.8126 23.0502 24.0161 23.0571 24.1955C23.064 24.3749 23.1111 24.5521 23.1986 24.728C23.3021 24.9281 23.4551 25.0753 23.6553 25.1696C23.8554 25.2639 24.0832 25.3157 24.3397 25.3261C24.5963 25.3353 24.8562 25.3145 25.1185 25.2628V24.6337C24.8148 24.6809 24.5548 24.6889 24.3397 24.6579C24.1246 24.628 23.9682 24.5245 23.8692 24.3496C23.8175 24.2565 23.7887 24.1461 23.7853 24.0173C23.7807 23.8885 23.7795 23.7332 23.7795 23.5526V21.4273H25.1197V20.8235H23.7784V19.5907Z" fill="#575756"/>
  <path d="M29.539 21.7057C29.462 21.5205 29.3573 21.3538 29.2227 21.2043C29.0881 21.0548 28.9202 20.9351 28.7165 20.8443C28.5141 20.7534 28.2679 20.7086 27.9803 20.7086C27.5995 20.7086 27.2682 20.7914 26.9876 20.957C26.7954 21.0709 26.6332 21.2181 26.4998 21.3975V19.3446H25.8418V25.2628H26.5815V22.9248C26.5815 22.6672 26.6114 22.4429 26.6701 22.2531C26.7287 22.0622 26.8115 21.9047 26.9185 21.7781C27.0255 21.6516 27.1532 21.5585 27.3028 21.4964C27.4523 21.4343 27.6191 21.4044 27.802 21.4044C28.0378 21.4044 28.2334 21.4492 28.3875 21.5401C28.5428 21.6309 28.6659 21.7528 28.758 21.9081C28.85 22.0634 28.9144 22.2382 28.9512 22.4325C28.988 22.6269 29.0064 22.8305 29.0064 23.0409V25.264H29.7461V22.8098C29.7461 22.6395 29.73 22.4601 29.6989 22.2692C29.6679 22.0783 29.6161 21.8909 29.539 21.7057Z" fill="#575756"/>
  <path d="M33.6765 21.009C33.3624 20.8032 32.9828 20.7008 32.5353 20.7008C32.1051 20.7008 31.7301 20.7974 31.4114 20.9906C31.0916 21.1838 30.8431 21.4575 30.6648 21.8129C30.4865 22.1683 30.3979 22.5881 30.3979 23.0722C30.3979 23.5357 30.4888 23.9405 30.6694 24.2867C30.85 24.6329 31.1031 24.9032 31.4275 25.0964C31.7519 25.2896 32.1327 25.3862 32.5687 25.3862C32.9989 25.3862 33.3877 25.2781 33.734 25.063C34.0802 24.8479 34.3402 24.5443 34.5128 24.1522L33.8099 23.9095C33.6868 24.1614 33.5166 24.3546 33.3003 24.4891C33.084 24.6237 32.8287 24.6904 32.5353 24.6904C32.0993 24.6904 31.7634 24.5466 31.5276 24.2591C31.324 24.0107 31.209 23.6726 31.1813 23.2482H33.8467H34.2079H34.5864C34.6083 22.7215 34.5404 22.2683 34.3828 21.8877C34.2263 21.5082 33.9905 21.2149 33.6765 21.009ZM31.5288 21.7945C31.7646 21.5036 32.1085 21.3586 32.5606 21.3586C32.9828 21.3586 33.3003 21.4932 33.5143 21.7635C33.6834 21.9762 33.7869 22.2764 33.8272 22.6617H31.1963C31.2412 22.3017 31.3516 22.013 31.5288 21.7945Z" fill="#575756"/>
  <path d="M38.8994 21.7065C38.8223 21.5213 38.7176 21.3546 38.583 21.2051C38.4485 21.0556 38.2805 20.9359 38.0769 20.8451C37.8744 20.7542 37.6282 20.7094 37.3407 20.7094C36.9599 20.7094 36.6286 20.7922 36.3479 20.9578C36.1558 21.0716 35.9936 21.2189 35.8601 21.3983V20.8232H35.2021V25.2625H35.9418V22.9244C35.9418 22.6668 35.9717 22.4425 36.0304 22.2528C36.0891 22.0619 36.1719 21.9043 36.2789 21.7778C36.3859 21.6513 36.5136 21.5581 36.6631 21.496C36.8126 21.4339 36.9794 21.404 37.1624 21.404C37.3982 21.404 37.5937 21.4489 37.7479 21.5397C37.9032 21.6306 38.0263 21.7525 38.1183 21.9077C38.2103 22.063 38.2747 22.2378 38.3116 22.4322C38.3484 22.6265 38.3668 22.8301 38.3668 23.0406V25.2636H39.1065V22.8094C39.1065 22.6392 39.0904 22.4598 39.0593 22.2689C39.0282 22.078 38.9765 21.8916 38.8994 21.7065Z" fill="#575756"/>
  <path d="M42.8321 23.0133C42.6054 22.8972 42.2971 22.7891 41.9049 22.6913C41.5563 22.6039 41.2917 22.5257 41.1088 22.4567C40.9271 22.3877 40.8017 22.3152 40.735 22.2393C40.6682 22.1634 40.6337 22.0714 40.6337 21.9645C40.6337 21.7724 40.7235 21.6206 40.9029 21.5079C41.0824 21.3952 41.3159 21.3446 41.6035 21.3561C41.9072 21.3641 42.1568 21.4366 42.3501 21.5735C42.5433 21.7103 42.6572 21.8978 42.6929 22.137L43.4406 22.0013C43.4107 21.7414 43.3141 21.5125 43.1507 21.317C42.9874 21.1215 42.7734 20.9697 42.5077 20.8627C42.2419 20.7558 41.9405 20.7029 41.6035 20.7029C41.2641 20.7029 40.9662 20.7558 40.7096 20.8627C40.4531 20.9697 40.2541 21.1215 40.1115 21.317C39.9688 21.5125 39.8975 21.7414 39.8975 22.0013C39.8975 22.2117 39.9458 22.3923 40.0413 22.5395C40.1368 22.6879 40.2978 22.8178 40.5221 22.9294C40.7465 23.0421 41.0548 23.1502 41.447 23.2537C41.8082 23.3492 42.0797 23.432 42.2592 23.4998C42.4386 23.5677 42.5571 23.6413 42.6146 23.7195C42.6722 23.7977 42.7009 23.9 42.7009 24.0254C42.7009 24.2416 42.6146 24.413 42.4421 24.5395C42.2695 24.666 42.0314 24.7281 41.7266 24.7281C41.4056 24.7281 41.1376 24.6579 40.9213 24.5165C40.705 24.375 40.567 24.1841 40.506 23.9426L39.7583 24.0622C39.8354 24.4785 40.0424 24.8028 40.3806 25.034C40.7188 25.2652 41.1525 25.3813 41.6817 25.3813C42.235 25.3813 42.6699 25.2583 42.9851 25.0133C43.3003 24.7683 43.4578 24.4314 43.4578 24.0047C43.4578 23.7747 43.4095 23.5803 43.3141 23.4228C43.2186 23.2652 43.0587 23.1295 42.8321 23.0133Z" fill="#575756"/>
  <path d="M47.1372 25.2628H50.8782V24.5682H47.8688V22.5878H50.3847V21.8932H47.8688V20.0392H50.8782V19.3446H47.1372V25.2628Z" fill="#575756"/>
  <path d="M55.3989 20.8251H54.528L53.3225 22.4524L52.1065 20.8251H51.2346L52.8957 23.0194L51.1978 25.2632H52.0732L53.3225 23.5864L54.5649 25.2632H55.4403L53.7377 23.0194L55.3989 20.8251Z" fill="#575756"/>
  <path d="M56.885 21.608C57.0817 21.4665 57.3336 21.3963 57.6373 21.3963C57.9088 21.3963 58.1492 21.4676 58.3586 21.6103C58.568 21.7529 58.7198 21.953 58.813 22.2106L59.5366 21.9932C59.4215 21.593 59.1949 21.2779 58.8556 21.0479C58.5174 20.8179 58.1136 20.7029 57.6454 20.7029C57.2014 20.7029 56.8217 20.8018 56.5065 20.9984C56.1913 21.1962 55.9498 21.4699 55.7807 21.823C55.6116 22.1749 55.5253 22.5832 55.5195 23.0455C55.5253 23.4975 55.6104 23.9 55.7749 24.2543C55.9394 24.6073 56.1787 24.8856 56.4927 25.0869C56.8068 25.2882 57.1876 25.3894 57.6373 25.3894C58.0975 25.3894 58.4909 25.2801 58.8176 25.0605C59.1432 24.8408 59.3836 24.5245 59.5366 24.1105L58.7969 23.9173C58.698 24.1692 58.553 24.3624 58.3609 24.4946C58.1688 24.628 57.9272 24.6936 57.6373 24.6936C57.1956 24.6936 56.8631 24.5418 56.64 24.2393C56.4168 23.9368 56.3018 23.5389 56.2972 23.0455C56.2995 22.7247 56.3489 22.4406 56.4456 22.1922C56.541 21.9426 56.6871 21.7483 56.885 21.608Z" fill="#575756"/>
  <path d="M63.897 21.7057C63.8199 21.5205 63.7152 21.3538 63.5806 21.2043C63.446 21.0548 63.2781 20.9351 63.0744 20.8443C62.872 20.7534 62.6258 20.7086 62.3382 20.7086C61.9575 20.7086 61.6262 20.7914 61.3455 20.957C61.1534 21.0709 60.9911 21.2181 60.8577 21.3975V19.3446H60.1997V25.2628H60.9394V22.9248C60.9394 22.6672 60.9693 22.4429 61.028 22.2531C61.0866 22.0622 61.1695 21.9047 61.2764 21.7781C61.3834 21.6516 61.5111 21.5585 61.6607 21.4964C61.8102 21.4343 61.977 21.4044 62.1599 21.4044C62.3957 21.4044 62.5913 21.4492 62.7454 21.5401C62.9007 21.6309 63.0238 21.7528 63.1159 21.9081C63.2079 22.0634 63.2723 22.2382 63.3091 22.4325C63.3459 22.6269 63.3643 22.8305 63.3643 23.0409V25.264H64.104V22.8098C64.104 22.6395 64.0879 22.4601 64.0569 22.2692C64.0258 22.0783 63.9729 21.8909 63.897 21.7057Z" fill="#575756"/>
  <path d="M68.4145 21.5691C68.2879 21.2781 68.0809 21.0619 67.7921 20.917C67.5034 20.7733 67.1571 20.7008 66.7545 20.7008C66.253 20.7008 65.8492 20.8112 65.542 21.0332C65.2349 21.2551 65.0278 21.5611 64.9208 21.9498L65.6157 22.1591C65.6973 21.8854 65.84 21.6876 66.0413 21.5657C66.2426 21.4438 66.4773 21.3828 66.7465 21.3828C67.1525 21.3828 67.4378 21.4771 67.6035 21.6669C67.753 21.8371 67.8313 22.0912 67.8393 22.4271C67.6829 22.4489 67.5207 22.4708 67.3504 22.4926C67.0812 22.5283 66.8166 22.5674 66.5544 22.6099C66.2921 22.6525 66.0563 22.7019 65.8457 22.7594C65.6214 22.825 65.4282 22.9147 65.266 23.0285C65.1038 23.1424 64.9784 23.285 64.8898 23.4564C64.8012 23.6277 64.7563 23.8301 64.7563 24.0625C64.7563 24.3005 64.8127 24.5202 64.9266 24.7203C65.0405 24.9204 65.2084 25.0814 65.4328 25.2033C65.6559 25.3252 65.9332 25.3862 66.2656 25.3862C66.6959 25.3862 67.0617 25.2942 67.3608 25.1113C67.5793 24.9779 67.7622 24.7974 67.9095 24.5708V25.2631H68.5594V22.5179C68.5594 22.3431 68.5514 22.1752 68.5353 22.0142C68.518 21.8543 68.4778 21.706 68.4145 21.5691ZM67.7576 23.7508C67.722 23.9348 67.6449 24.1039 67.5276 24.258C67.4102 24.4132 67.2538 24.5374 67.0605 24.6317C66.8673 24.726 66.6395 24.7732 66.3761 24.7732C66.1655 24.7732 65.9941 24.7387 65.8641 24.6708C65.7342 24.603 65.6387 24.5133 65.5766 24.404C65.5144 24.2948 65.4845 24.1798 65.4845 24.059C65.4845 23.9198 65.5167 23.8025 65.5812 23.7071C65.6456 23.6116 65.7307 23.5346 65.8365 23.4748C65.9424 23.415 66.0551 23.3655 66.1759 23.3264C66.3404 23.2793 66.5256 23.239 66.7315 23.2057C66.9374 23.1712 67.1548 23.139 67.3849 23.109C67.531 23.0895 67.6817 23.0688 67.8313 23.0492C67.8301 23.1182 67.829 23.1988 67.8267 23.2919C67.8209 23.461 67.7979 23.6139 67.7576 23.7508Z" fill="#575756"/>
  <path d="M73.1533 21.7065C73.0762 21.5213 72.9715 21.3546 72.837 21.2051C72.7024 21.0556 72.5344 20.9359 72.3308 20.8451C72.1283 20.7542 71.8822 20.7094 71.5946 20.7094C71.2138 20.7094 70.8825 20.7922 70.6018 20.9578C70.4097 21.0716 70.2475 21.2189 70.1141 21.3983V20.8232H69.4561V25.2625H70.1957V22.9244C70.1957 22.6668 70.2256 22.4425 70.2843 22.2528C70.343 22.0619 70.4258 21.9043 70.5328 21.7778C70.6398 21.6513 70.7675 21.5581 70.917 21.496C71.0666 21.4339 71.2334 21.404 71.4163 21.404C71.6521 21.404 71.8476 21.4489 72.0018 21.5397C72.1571 21.6306 72.2802 21.7525 72.3722 21.9077C72.4642 22.063 72.5287 22.2378 72.5655 22.4322C72.6023 22.6265 72.6207 22.8301 72.6207 23.0406V25.2636H73.3604V22.8094C73.3604 22.6392 73.3443 22.4598 73.3132 22.2689C73.2821 22.078 73.2304 21.8916 73.1533 21.7065Z" fill="#575756"/>
  <path d="M77.3845 21.3195C77.2855 21.1999 77.174 21.0953 77.0474 21.0044C76.7621 20.802 76.4101 20.7008 75.9914 20.7008C75.5807 20.7008 75.2264 20.8032 74.9308 21.0067C74.6351 21.2103 74.4062 21.4898 74.2463 21.8428C74.0864 22.1959 74.0059 22.595 74.0059 23.0389C74.0059 23.4828 74.0864 23.8819 74.2463 24.235C74.4062 24.588 74.6351 24.8687 74.9308 25.0757C75.2264 25.2827 75.5819 25.3862 75.996 25.3862C76.4124 25.3862 76.7633 25.2827 77.0486 25.0757C77.1394 25.0101 77.2223 24.9354 77.2993 24.8549V25.2838C77.3016 25.5851 77.2591 25.837 77.1693 26.0406C77.0808 26.243 76.9427 26.3959 76.7564 26.4994C76.57 26.603 76.3353 26.6536 76.0535 26.6536C75.8395 26.6536 75.6325 26.6041 75.43 26.5052C75.2287 26.4063 75.0734 26.2487 74.963 26.0325L74.2923 26.3856C74.4154 26.6053 74.5695 26.787 74.7547 26.9307C74.94 27.0745 75.1436 27.1826 75.3656 27.2539C75.5876 27.3252 75.8154 27.3609 76.0477 27.3609C76.4009 27.3609 76.7126 27.3102 76.9807 27.2113C77.2487 27.1113 77.4684 26.9595 77.6387 26.7548C77.809 26.5501 77.9228 26.2913 77.9804 25.9762C78.0022 25.8669 78.0172 25.7554 78.0241 25.6438C78.031 25.5311 78.0344 25.4149 78.0344 25.2942V20.8262H77.3845V21.3195ZM77.2476 23.9049C77.1555 24.1579 77.014 24.3569 76.8219 24.5006C76.6298 24.6444 76.3848 24.7168 76.0857 24.7168C75.7947 24.7168 75.5531 24.6432 75.3598 24.4949C75.1666 24.3465 75.0216 24.1464 74.9261 23.8922C74.8307 23.6392 74.7824 23.354 74.7824 23.0389C74.7824 22.7261 74.8295 22.4443 74.9238 22.1924C75.0182 21.9406 75.1631 21.7405 75.3598 21.5921C75.5554 21.4437 75.805 21.3701 76.1064 21.3701C76.3975 21.3701 76.6367 21.4403 76.8254 21.5818C77.014 21.7232 77.1544 21.9187 77.2464 22.1694C77.3385 22.4202 77.3845 22.71 77.3845 23.0389C77.3845 23.3632 77.3396 23.6519 77.2476 23.9049Z" fill="#575756"/>
  <path d="M82.049 21.009C81.735 20.8032 81.3554 20.7008 80.9079 20.7008C80.4776 20.7008 80.1026 20.7974 79.784 20.9906C79.4642 21.1838 79.2157 21.4575 79.0374 21.8129C78.8591 22.1683 78.7705 22.5881 78.7705 23.0722C78.7705 23.5357 78.8614 23.9405 79.042 24.2867C79.2226 24.6329 79.4757 24.9032 79.8001 25.0964C80.1245 25.2896 80.5052 25.3862 80.9412 25.3862C81.3715 25.3862 81.7603 25.2781 82.1065 25.063C82.4528 24.8479 82.7128 24.5443 82.8853 24.1522L82.1825 23.9095C82.0594 24.1614 81.8891 24.3546 81.6729 24.4891C81.4566 24.6237 81.2012 24.6904 80.9079 24.6904C80.4719 24.6904 80.136 24.5466 79.9002 24.2591C79.6966 24.0107 79.5815 23.6726 79.5539 23.2482H82.2193H82.5805H82.959C82.9808 22.7215 82.9129 22.2683 82.7553 21.8877C82.5989 21.5082 82.3631 21.2149 82.049 21.009ZM79.9013 21.7945C80.1371 21.5036 80.4811 21.3586 80.9332 21.3586C81.3554 21.3586 81.6729 21.4932 81.8868 21.7635C82.0559 21.9762 82.1595 22.2764 82.1997 22.6617H79.5689C79.6137 22.3017 79.7242 22.013 79.9013 21.7945Z" fill="#575756"/>
  <path d="M91.6697 22.2174H89.6393V22.8212H90.8978C90.8679 23.2133 90.7817 23.5492 90.639 23.8286C90.4964 24.1081 90.2951 24.322 90.0351 24.4704C89.7751 24.6187 89.4541 24.6912 89.0734 24.6877C88.6316 24.6854 88.2647 24.5831 87.969 24.3818C87.6734 24.1805 87.4525 23.9011 87.3053 23.5457C87.1569 23.1892 87.0844 22.7752 87.0878 22.3048C87.0901 21.8309 87.1661 21.4146 87.3145 21.0547C87.4629 20.6958 87.6826 20.4175 87.9748 20.2186C88.267 20.0196 88.6328 19.9218 89.0745 19.9241C89.4967 19.9241 89.8487 20.0311 90.1317 20.245C90.4135 20.4589 90.6171 20.7453 90.7402 21.1041L91.4799 20.9523C91.3269 20.4175 91.0474 19.9966 90.6413 19.6884C90.2352 19.3802 89.7015 19.226 89.0377 19.226C88.4867 19.226 88.007 19.3514 87.5986 19.6021C87.1902 19.8528 86.8739 20.2082 86.6496 20.6682C86.4252 21.1283 86.3125 21.6734 86.3125 22.3036C86.3125 22.7809 86.3781 23.2087 86.5081 23.5883C86.6381 23.9678 86.8244 24.2909 87.0648 24.5578C87.3064 24.8246 87.594 25.0293 87.9276 25.1719C88.2624 25.3145 88.6316 25.3858 89.0377 25.3858C89.6163 25.3858 90.1018 25.2639 90.4952 25.0201C90.8886 24.7763 91.1854 24.4416 91.3879 24.0149C91.5892 23.5883 91.6904 23.1064 91.6904 22.5658C91.6904 22.5382 91.6893 22.4876 91.6881 22.4117C91.6835 22.337 91.6778 22.2726 91.6697 22.2174Z" fill="#575756"/>
  <path d="M94.2088 20.7939C94.0581 20.8031 93.9097 20.833 93.7648 20.8825C93.6198 20.9319 93.4899 21.0032 93.3737 21.0964C93.269 21.17 93.1758 21.2654 93.0918 21.3804C93.0562 21.4299 93.0251 21.4816 92.9952 21.5345V20.8261H92.3418V25.2654H93.078V23.0377C93.078 22.8629 93.093 22.6904 93.1229 22.5213C93.1528 22.3522 93.2069 22.1958 93.2851 22.0509C93.3633 21.906 93.4737 21.783 93.6164 21.6806C93.7728 21.5656 93.9419 21.4989 94.126 21.4793C94.31 21.4598 94.478 21.4713 94.6321 21.5127V20.8261C94.501 20.7939 94.3595 20.7836 94.2088 20.7939Z" fill="#575756"/>
  <path d="M98.1956 20.9987C97.8746 20.7997 97.4927 20.7008 97.0487 20.7008C96.615 20.7008 96.2388 20.7986 95.9179 20.9952C95.5969 21.1907 95.3496 21.4645 95.1736 21.8152C94.9976 22.166 94.9102 22.5743 94.9102 23.04C94.9102 23.4978 94.9964 23.9026 95.169 24.2568C95.3415 24.6099 95.5877 24.8871 95.9075 25.0872C96.2273 25.2873 96.6069 25.3873 97.0487 25.3873C97.4893 25.3873 97.8712 25.2884 98.191 25.0895C98.5119 24.8905 98.7581 24.6156 98.9307 24.2637C99.1032 23.9118 99.1895 23.5035 99.1895 23.0412C99.1895 22.5835 99.1032 22.1786 98.933 21.8267C98.7627 21.4737 98.5165 21.1976 98.1956 20.9987ZM98.0771 24.2315C97.8528 24.5386 97.51 24.6915 97.0498 24.6915C96.6035 24.6915 96.2641 24.5409 96.0341 24.2396C95.804 23.9382 95.689 23.538 95.689 23.0389C95.689 22.7157 95.7384 22.4305 95.8373 22.1844C95.9363 21.9383 96.0858 21.7451 96.286 21.6048C96.4861 21.4656 96.7404 21.3955 97.051 21.3955C97.5054 21.3955 97.847 21.5438 98.0748 21.8417C98.3026 22.1395 98.4164 22.5386 98.4164 23.04C98.4141 23.5277 98.3014 23.9256 98.0771 24.2315Z" fill="#575756"/>
  <path d="M103.01 23.1632C103.01 23.4185 102.981 23.6417 102.924 23.8337C102.866 24.0258 102.785 24.1833 102.678 24.3087C102.571 24.4329 102.442 24.5272 102.291 24.5905C102.14 24.6537 101.974 24.6848 101.789 24.6848C101.557 24.6848 101.363 24.6399 101.207 24.5491C101.052 24.4582 100.929 24.3351 100.837 24.1787C100.745 24.0223 100.681 23.8475 100.641 23.6532C100.603 23.4588 100.584 23.2575 100.584 23.0494V20.8263H99.8442V23.2805C99.8442 23.4473 99.8603 23.6267 99.8914 23.8188C99.9225 24.0108 99.9777 24.1983 100.054 24.3823C100.131 24.5663 100.235 24.7331 100.37 24.8837C100.505 25.0344 100.674 25.1551 100.877 25.246C101.082 25.3369 101.326 25.3817 101.611 25.3817C101.992 25.3817 102.323 25.2989 102.604 25.1333C102.796 25.0206 102.958 24.8722 103.091 24.6917V25.2667H103.744V20.8274H103.008V23.1632H103.01Z" fill="#575756"/>
  <path d="M108.508 21.8436C108.35 21.4906 108.121 21.2111 107.824 21.0075C107.526 20.8028 107.172 20.7016 106.761 20.7016C106.345 20.7016 105.993 20.8028 105.706 21.0052C105.58 21.095 105.467 21.2008 105.367 21.3204V20.8247H104.713V27.2363H105.45V24.8511C105.528 24.9339 105.612 25.0098 105.705 25.0765C105.99 25.2835 106.341 25.387 106.758 25.387C107.172 25.387 107.527 25.2835 107.824 25.0765C108.121 24.8695 108.35 24.5889 108.508 24.2358C108.667 23.8827 108.747 23.4836 108.747 23.0397C108.747 22.5958 108.667 22.1967 108.508 21.8436ZM107.826 23.8931C107.731 24.1461 107.587 24.3473 107.395 24.4957C107.203 24.6441 106.96 24.7177 106.667 24.7177C106.368 24.7177 106.123 24.6464 105.93 24.5015C105.738 24.3565 105.597 24.1587 105.505 23.9057C105.413 23.6527 105.367 23.364 105.367 23.0409C105.367 22.712 105.413 22.4221 105.506 22.1714C105.599 21.9207 105.741 21.7252 105.929 21.5837C106.118 21.4423 106.357 21.3721 106.645 21.3721C106.946 21.3721 107.195 21.4457 107.391 21.5941C107.587 21.7424 107.733 21.9426 107.827 22.1944C107.922 22.4463 107.969 22.7292 107.969 23.0409C107.97 23.3548 107.922 23.6389 107.826 23.8931Z" fill="#575756"/>
</svg>
