<svg width="24" height="25" viewBox="0 0 24 25" fill="none" xmlns="http://www.w3.org/2000/svg">
<path fill-rule="evenodd" clip-rule="evenodd" d="M20 18.5258C20.5523 18.5258 21 18.078 21 17.5258C21 16.9735 20.5523 16.5258 20 16.5258H4C3.44772 16.5258 3 16.9735 3 17.5258C3 18.078 3.44772 18.5258 4 18.5258H20ZM20 13.5258C20.5523 13.5258 21 13.078 21 12.5258C21 11.9735 20.5523 11.5258 20 11.5258H4C3.44772 11.5258 3 11.9735 3 12.5258C3 13.078 3.44772 13.5258 4 13.5258H20ZM3 7.52576C3 8.07804 3.44772 8.52576 4 8.52576H20C20.5523 8.52576 21 8.07804 21 7.52576C21 6.97347 20.5523 6.52576 20 6.52576H4C3.44772 6.52576 3 6.97347 3 7.52576Z" fill="#A1AEB7"/>
<mask id="mask0_15_836" style="mask-type:luminance" maskUnits="userSpaceOnUse" x="3" y="6" width="18" height="13">
<path fill-rule="evenodd" clip-rule="evenodd" d="M20 18.5258C20.5523 18.5258 21 18.078 21 17.5258C21 16.9735 20.5523 16.5258 20 16.5258H4C3.44772 16.5258 3 16.9735 3 17.5258C3 18.078 3.44772 18.5258 4 18.5258H20ZM20 13.5258C20.5523 13.5258 21 13.078 21 12.5258C21 11.9735 20.5523 11.5258 20 11.5258H4C3.44772 11.5258 3 11.9735 3 12.5258C3 13.078 3.44772 13.5258 4 13.5258H20ZM3 7.52576C3 8.07804 3.44772 8.52576 4 8.52576H20C20.5523 8.52576 21 8.07804 21 7.52576C21 6.97347 20.5523 6.52576 20 6.52576H4C3.44772 6.52576 3 6.97347 3 7.52576Z" fill="white"/>
</mask>
<g mask="url(#mask0_15_836)">
<rect y="0.525757" width="24" height="24" fill="#A1AEB7"/>
</g>
</svg>
