<svg width="18" height="16" viewBox="0 0 18 16" fill="none" xmlns="http://www.w3.org/2000/svg">
<path id="Icon" d="M1.94194 3.10251C1.3222 2.43608 1.01233 2.10286 1.00065 1.81967C0.990493 1.57366 1.10037 1.33721 1.29769 1.18045C1.52483 1 1.98954 1 2.91896 1H15.081C16.0105 1 16.4752 1 16.7023 1.18045C16.8996 1.33721 17.0095 1.57366 16.9994 1.81967C16.9877 2.10286 16.6778 2.43608 16.0581 3.10251L11.3825 8.13047C11.2589 8.26331 11.1972 8.32974 11.1531 8.40533C11.114 8.47238 11.0854 8.54456 11.068 8.61958C11.0485 8.70418 11.0485 8.79331 11.0485 8.97157V13.1871C11.0485 13.3413 11.0485 13.4184 11.0226 13.485C10.9998 13.5439 10.9626 13.5967 10.9143 13.639C10.8596 13.6868 10.7852 13.7154 10.6364 13.7727L7.8505 14.8449C7.54934 14.9608 7.39876 15.0188 7.27788 14.9946C7.17217 14.9735 7.07941 14.913 7.01975 14.8264C6.95154 14.7274 6.95154 14.5714 6.95154 14.2593V8.97157C6.95154 8.79331 6.95154 8.70418 6.93197 8.61958C6.91462 8.54456 6.88596 8.47238 6.84689 8.40533C6.80285 8.32974 6.74108 8.26331 6.61754 8.13047L1.94194 3.10251Z" stroke="#3C06D9" stroke-width="1.5" stroke-linecap="round" stroke-linejoin="round"/>
</svg>
