<svg width="20" height="20" viewBox="0 0 20 20" fill="none" xmlns="http://www.w3.org/2000/svg">
<path fill-rule="evenodd" clip-rule="evenodd" d="M12.8909 4.8085C12.8909 3.96573 13.5403 3.3335 14.2798 3.3335C15.0194 3.3335 15.6688 3.96573 15.6688 4.8085C15.6688 5.65127 15.0194 6.28351 14.2798 6.28351C13.8022 6.28351 13.3622 6.0198 13.1104 5.60598C13.0996 5.58338 13.0876 5.5611 13.0743 5.53923C13.0699 5.53199 13.0654 5.52484 13.0608 5.5178C12.953 5.30985 12.8909 5.06925 12.8909 4.8085ZM14.2798 7.78351C13.4776 7.78351 12.7627 7.45126 12.2447 6.92022L8.50405 9.19097C8.57506 9.44928 8.61292 9.72092 8.61292 10.0002C8.61292 10.2793 8.5751 10.5508 8.50417 10.809L10.6419 12.1048L9.87384 13.3933L7.7594 12.1116C7.2414 12.6428 6.52633 12.9752 5.72394 12.9752C4.1008 12.9752 2.83496 11.6151 2.83496 10.0002C2.83496 8.38528 4.1008 7.02517 5.72394 7.02517C6.52616 7.02517 7.24111 7.35742 7.75909 7.88846L11.4997 5.6177C11.4287 5.3594 11.3909 5.08776 11.3909 4.8085C11.3909 3.1936 12.6567 1.8335 14.2798 1.8335C15.903 1.8335 17.1688 3.1936 17.1688 4.8085C17.1688 6.4234 15.903 7.78351 14.2798 7.78351ZM11.4482 14.6017C11.4106 14.793 11.3909 14.9905 11.3909 15.1919C11.3909 16.8068 12.6567 18.1669 14.2798 18.1669C15.903 18.1669 17.1688 16.8068 17.1688 15.1919C17.1688 13.577 15.903 12.2169 14.2798 12.2169C13.5967 12.2169 12.9769 12.4578 12.488 12.8572L11.4482 14.6017ZM6.92947 9.26945C6.9162 9.24758 6.90417 9.2253 6.89337 9.2027C6.64159 8.78888 6.20154 8.52517 5.72394 8.52517C4.98443 8.52517 4.33496 9.15741 4.33496 10.0002C4.33496 10.8429 4.98443 11.4752 5.72394 11.4752C6.20154 11.4752 6.64159 11.2115 6.89338 10.7977C6.9041 10.7752 6.91604 10.7531 6.92922 10.7313C6.9337 10.7239 6.93828 10.7167 6.94297 10.7095C7.05075 10.5015 7.11292 10.2609 7.11292 10.0002C7.11292 9.73943 7.05075 9.49883 6.94297 9.29088C6.93837 9.28384 6.93387 9.27669 6.92947 9.26945ZM13.0817 14.4607C13.0694 14.481 13.0563 14.5004 13.0425 14.5191C12.946 14.7185 12.8909 14.9462 12.8909 15.1919C12.8909 16.0346 13.5403 16.6669 14.2798 16.6669C15.0194 16.6669 15.6688 16.0346 15.6688 15.1919C15.6688 14.3491 15.0194 13.7169 14.2798 13.7169C13.8172 13.7169 13.3897 13.9643 13.1345 14.3561C13.1199 14.3917 13.1023 14.4267 13.0817 14.4607Z" fill="url(#paint0_linear_923_11797)"/>
<defs>
<linearGradient id="paint0_linear_923_11797" x1="0.568946" y1="11.5267" x2="21.1897" y2="11.0886" gradientUnits="userSpaceOnUse">
<stop stop-color="#3300C6"/>
<stop offset="1" stop-color="#8466DB"/>
</linearGradient>
</defs>
</svg>
