<svg width="20" height="20" viewBox="0 0 20 20" fill="none" xmlns="http://www.w3.org/2000/svg">
<path fill-rule="evenodd" clip-rule="evenodd" d="M8.92114 14.4122C8.5965 14.7368 8.07015 14.7368 7.7455 14.4122C7.42111 14.0878 7.42082 13.5619 7.74486 13.2372L10.975 10L7.74486 6.76282C7.42082 6.43807 7.42111 5.91221 7.7455 5.58782C8.07015 5.26317 8.5965 5.26317 8.92114 5.58782L13.3333 10L8.92114 14.4122Z" fill="#424B5A"/>
<mask id="mask0_426_2689" style="mask-type:luminance" maskUnits="userSpaceOnUse" x="7" y="5" width="7" height="10">
<path fill-rule="evenodd" clip-rule="evenodd" d="M8.92114 14.4122C8.5965 14.7368 8.07015 14.7368 7.7455 14.4122C7.42111 14.0878 7.42082 13.5619 7.74486 13.2372L10.975 10L7.74486 6.76282C7.42082 6.43807 7.42111 5.91221 7.7455 5.58782C8.07015 5.26317 8.5965 5.26317 8.92114 5.58782L13.3333 10L8.92114 14.4122Z" fill="white"/>
</mask>
<g mask="url(#mask0_426_2689)">
<rect x="20" y="20" width="20" height="20" transform="rotate(180 20 20)" fill="#424B5A"/>
</g>
</svg>
